<svg xmlns="http://www.w3.org/2000/svg" xmlns:xlink="http://www.w3.org/1999/xlink" version="1.1" data-diagram-type="DESCRIPTION" style="width:1008px;height:775px;background:#FFFFFF;" width="1008px" height="775px" viewBox="0 0 1008 775" zoomAndPan="magnify" preserveAspectRatio="none" contentStyleType="text/css"><?plantuml 1.2026.7beta11?><defs/><g font-family="sans-serif" lengthAdjust="spacing"><g class="title" data-source-line="2"><text x="368.239" y="22.995" fill="#000" font-size="14" textLength="264.742" font-weight="700">Bits &amp; Bots Platform — Use Cases</text></g><!--cluster CriancaBox--><g class="cluster" data-qualified-name="CriancaBox" id="ent0003" data-source-line="7"><rect x="88.31" y="358.297" width="266.35" height="403" fill="none" style="stroke:#181818;stroke-width:1;" rx="2.5" ry="2.5"/><text x="201.555" y="373.292" fill="#000" font-size="14" textLength="39.86" font-weight="700">Child</text></g><!--cluster MonitorBox--><g class="cluster" data-qualified-name="MonitorBox" id="ent0009" data-source-line="15"><rect x="387.66" y="44.297" width="606.56" height="493" fill="none" style="stroke:#181818;stroke-width:1;" rx="2.5" ry="2.5"/><text x="660.175" y="59.292" fill="#000" font-size="14" textLength="61.53" font-weight="700">Monitor</text></g><!--entity UC1--><g class="entity" data-qualified-name="CriancaBox.UC1" id="ent0004" data-source-line="8"><ellipse cx="221.494" cy="416.302" rx="102.124" ry="22.825" fill="#F1F1F1" style="stroke:#181818;stroke-width:0.5;"/><text x="131.13" y="420.95" fill="#000" font-size="14" textLength="180.729">Log in with code + avatar</text></g><!--entity UC3--><g class="entity" data-qualified-name="CriancaBox.UC3" id="ent0005" data-source-line="9"><ellipse cx="221.487" cy="491.292" rx="71.377" ry="16.675" fill="#F1F1F1" style="stroke:#181818;stroke-width:0.5;"/><text x="166.574" y="495.941" fill="#000" font-size="14" textLength="109.826">Browse courses</text></g><!--entity UC4--><g class="entity" data-qualified-name="CriancaBox.UC4" id="ent0006" data-source-line="10"><ellipse cx="221.494" cy="569.302" rx="117.174" ry="25.835" fill="#F1F1F1" style="stroke:#181818;stroke-width:0.5;"/><text x="114.837" y="573.95" fill="#000" font-size="14" textLength="213.315">Go through an activity's levels</text></g><!--entity UC5--><g class="entity" data-qualified-name="CriancaBox.UC5" id="ent0007" data-source-line="11"><ellipse cx="221.491" cy="651.297" rx="94.601" ry="21.32" fill="#F1F1F1" style="stroke:#181818;stroke-width:0.5;"/><text x="139.449" y="655.946" fill="#000" font-size="14" textLength="164.083">Submit the closing quiz</text></g><!--entity UC6--><g class="entity" data-qualified-name="CriancaBox.UC6" id="ent0008" data-source-line="12"><ellipse cx="221.49" cy="726.301" rx="80.72" ry="18.544" fill="#F1F1F1" style="stroke:#181818;stroke-width:0.5;"/><text x="155.305" y="730.949" fill="#000" font-size="14" textLength="132.371">View own progress</text></g><!--entity UC2--><g class="entity" data-qualified-name="MonitorBox.UC2" id="ent0010" data-source-line="16"><ellipse cx="517.899" cy="104.295" rx="114.239" ry="25.248" fill="#F1F1F1" style="stroke:#181818;stroke-width:0.5;"/><text x="414.39" y="108.943" fill="#000" font-size="14" textLength="207.02">Log in with email + password</text></g><!--entity UC7--><g class="entity" data-qualified-name="MonitorBox.UC7" id="ent0011" data-source-line="17"><ellipse cx="517.904" cy="183.302" rx="79.574" ry="18.315" fill="#F1F1F1" style="stroke:#181818;stroke-width:0.5;"/><text x="453.068" y="187.95" fill="#000" font-size="14" textLength="129.671">Create/edit course</text></g><!--entity UC8--><g class="entity" data-qualified-name="MonitorBox.UC8" id="ent0012" data-source-line="18"><ellipse cx="517.898" cy="262.296" rx="113.948" ry="25.19" fill="#F1F1F1" style="stroke:#181818;stroke-width:0.5;"/><text x="450.66" y="257.443" fill="#000" font-size="14" textLength="134.477">Create/edit activity</text><text x="435.88" y="273.74" fill="#000" font-size="14" textLength="164.035">(materials, levels, quiz)</text></g><!--entity UC9--><g class="entity" data-qualified-name="MonitorBox.UC9" id="ent0013" data-source-line="19"><ellipse cx="867.681" cy="262.295" rx="110.541" ry="24.508" fill="#F1F1F1" style="stroke:#181818;stroke-width:0.5;"/><text x="768.156" y="266.943" fill="#000" font-size="14" textLength="199.049">Import content from .md file</text></g><!--entity UC10--><g class="entity" data-qualified-name="MonitorBox.UC10" id="ent0014" data-source-line="20"><ellipse cx="517.899" cy="345.299" rx="99.709" ry="22.342" fill="#F1F1F1" style="stroke:#181818;stroke-width:0.5;"/><text x="430.191" y="349.947" fill="#000" font-size="14" textLength="175.417">Validate a child's activity</text></g><!--entity UC11--><g class="entity" data-qualified-name="MonitorBox.UC11" id="ent0015" data-source-line="21"><ellipse cx="517.895" cy="422.292" rx="84.475" ry="19.295" fill="#F1F1F1" style="stroke:#181818;stroke-width:0.5;"/><text x="447.338" y="426.94" fill="#000" font-size="14" textLength="141.114">Reset quiz attempts</text></g><!--entity UC12--><g class="entity" data-qualified-name="MonitorBox.UC12" id="ent0016" data-source-line="22"><ellipse cx="517.904" cy="499.296" rx="100.094" ry="22.419" fill="#F1F1F1" style="stroke:#181818;stroke-width:0.5;"/><text x="429.772" y="503.944" fill="#000" font-size="14" textLength="176.265">Track children's progress</text></g><!--entity crianca--><g class="entity" data-qualified-name="crianca" id="ent0001" data-source-line="4"><ellipse cx="23.657" cy="510.647" rx="8" ry="8" fill="#F1F1F1" style="stroke:#181818;stroke-width:0.5;"/><path d="M23.657,518.647 L23.657,545.647 M10.657,526.647 L36.657,526.647 M23.657,545.647 L10.657,560.647 M23.657,545.647 L36.657,560.647" style="stroke:#181818;stroke-width:0.5;" fill="none"/><text x="6" y="575.142" fill="#000" font-size="14" textLength="35.314">Child</text></g><!--entity monitor--><g class="entity" data-qualified-name="monitor" id="ent0002" data-source-line="5"><ellipse cx="221.489" cy="274.647" rx="8" ry="8" fill="#F1F1F1" style="stroke:#181818;stroke-width:0.5;"/><path d="M221.489,282.647 L221.489,309.647 M208.489,290.647 L234.489,290.647 M221.489,309.647 L208.489,324.647 M221.489,309.647 L234.489,324.647" style="stroke:#181818;stroke-width:0.5;" fill="none"/><text x="194.88" y="339.142" fill="#000" font-size="14" textLength="53.218">Monitor</text></g><!--link crianca to monitor--><!--link crianca to UC1--><g class="link" data-entity-1="ent0001" data-entity-2="ent0004" id="lnk18" data-source-line="27" data-link-type="dependency"><path d="M41.58,504.067 C50.91,487.667 63.94,469.297 80.31,457.297 C97.39,444.787 113.447,437.492 133.797,431.442" style="stroke:#181818;stroke-width:1;" fill="none" id="crianca-to-UC1"/><polygon points="138.59,430.017,128.823,428.747,133.797,431.442,131.103,436.416,138.59,430.017" fill="#181818" style="stroke:#181818;stroke-width:1;stroke-linejoin:miter;stroke-miterlimit:10;"/></g><!--link crianca to UC3--><g class="link" data-entity-1="ent0001" data-entity-2="ent0005" id="lnk19" data-source-line="28" data-link-type="dependency"><path d="M41.75,533.427 C50.5,530.077 61.37,526.157 71.31,523.297 C101.6,514.577 131.065,508.017 159.165,502.457" style="stroke:#181818;stroke-width:1;" fill="none" id="crianca-to-UC3"/><polygon points="164.07,501.487,154.465,499.31,159.165,502.457,156.018,507.158,164.07,501.487" fill="#181818" style="stroke:#181818;stroke-width:1;stroke-linejoin:miter;stroke-miterlimit:10;"/></g><!--link crianca to UC4--><g class="link" data-entity-1="ent0001" data-entity-2="ent0006" id="lnk20" data-source-line="29" data-link-type="dependency"><path d="M41.69,542.817 C60.4,545.587 87.024,549.534 118.484,554.194" style="stroke:#181818;stroke-width:1;" fill="none" id="crianca-to-UC4"/><polygon points="123.43,554.927,115.113,549.651,118.484,554.194,113.941,557.565,123.43,554.927" fill="#181818" style="stroke:#181818;stroke-width:1;stroke-linejoin:miter;stroke-miterlimit:10;"/></g><!--link crianca to UC5--><g class="link" data-entity-1="ent0001" data-entity-2="ent0007" id="lnk21" data-source-line="30" data-link-type="dependency"><path d="M41.77,570.707 C51.37,585.237 64.58,601.717 80.31,612.297 C98.86,624.777 116.512,631.985 137.982,637.775" style="stroke:#181818;stroke-width:1;" fill="none" id="crianca-to-UC5"/><polygon points="142.81,639.077,135.162,632.871,137.982,637.775,133.079,640.596,142.81,639.077" fill="#181818" style="stroke:#181818;stroke-width:1;stroke-linejoin:miter;stroke-miterlimit:10;"/></g><!--link crianca to UC6--><g class="link" data-entity-1="ent0001" data-entity-2="ent0008" id="lnk22" data-source-line="31" data-link-type="dependency"><path d="M28.93,578.787 C34.76,612.877 48.43,661.567 80.31,690.297 C97.95,706.187 116.79,714.168 139.69,719.278" style="stroke:#181818;stroke-width:1;" fill="none" id="crianca-to-UC6"/><polygon points="144.57,720.367,136.657,714.503,139.69,719.278,134.915,722.311,144.57,720.367" fill="#181818" style="stroke:#181818;stroke-width:1;stroke-linejoin:miter;stroke-miterlimit:10;"/></g><!--link monitor to UC2--><g class="link" data-entity-1="ent0002" data-entity-2="ent0010" id="lnk23" data-source-line="33" data-link-type="dependency"><path d="M248.35,270.077 C276.87,234.597 325.88,179.847 379.66,147.297 C396.97,136.827 412.301,130.212 431.681,123.962" style="stroke:#181818;stroke-width:1;" fill="none" id="monitor-to-UC2"/><polygon points="436.44,122.427,426.647,121.382,431.681,123.962,429.102,128.996,436.44,122.427" fill="#181818" style="stroke:#181818;stroke-width:1;stroke-linejoin:miter;stroke-miterlimit:10;"/></g><!--link monitor to UC7--><g class="link" data-entity-1="ent0002" data-entity-2="ent0011" id="lnk24" data-source-line="34" data-link-type="dependency"><path d="M248.53,287.687 C278.96,268.887 331.33,238.387 379.66,219.297 C404.52,209.477 428.1,202.69 452.62,196.77" style="stroke:#181818;stroke-width:1;" fill="none" id="monitor-to-UC7"/><polygon points="457.48,195.597,447.793,193.821,452.62,196.77,449.67,201.597,457.48,195.597" fill="#181818" style="stroke:#181818;stroke-width:1;stroke-linejoin:miter;stroke-miterlimit:10;"/></g><!--link monitor to UC8--><g class="link" data-entity-1="ent0002" data-entity-2="ent0012" id="lnk25" data-source-line="35" data-link-type="dependency"><path d="M248.36,300.607 C286.66,295.137 355.52,285.323 416.08,276.683" style="stroke:#181818;stroke-width:1;" fill="none" id="monitor-to-UC8"/><polygon points="421.03,275.977,411.555,273.288,416.08,276.683,412.685,281.208,421.03,275.977" fill="#181818" style="stroke:#181818;stroke-width:1;stroke-linejoin:miter;stroke-miterlimit:10;"/></g><!--link UC8 to UC9--><g class="link" data-entity-1="ent0012" data-entity-2="ent0013" id="lnk26" data-source-line="36" data-link-type="dependency"><path d="M632.3,262.297 C672.24,262.297 712.05,262.297 751.7,262.297" style="stroke:#181818;stroke-width:1;stroke-dasharray:7,7;" fill="none" id="UC8-to-UC9"/><polygon points="756.7,262.297,747.7,258.297,751.7,262.297,747.7,266.297,756.7,262.297" fill="#181818" style="stroke:#181818;stroke-width:1;stroke-linejoin:miter;stroke-miterlimit:10;"/><text x="663.14" y="258.364" fill="#000" font-size="13" textLength="63.007">«include»</text></g><!--link monitor to UC10--><g class="link" data-entity-1="ent0002" data-entity-2="ent0014" id="lnk27" data-source-line="37" data-link-type="dependency"><path d="M248.36,307.897 C289.05,313.567 364.848,324.117 427.218,332.807" style="stroke:#181818;stroke-width:1;" fill="none" id="monitor-to-UC10"/><polygon points="432.17,333.497,423.808,328.293,427.218,332.807,422.704,336.217,432.17,333.497" fill="#181818" style="stroke:#181818;stroke-width:1;stroke-linejoin:miter;stroke-miterlimit:10;"/></g><!--link monitor to UC11--><g class="link" data-entity-1="ent0002" data-entity-2="ent0015" id="lnk28" data-source-line="38" data-link-type="dependency"><path d="M248.44,317.857 C291.32,340.227 372.94,382.687 379.66,385.297 C404.05,394.747 426.932,401.492 451.042,407.582" style="stroke:#181818;stroke-width:1;" fill="none" id="monitor-to-UC11"/><polygon points="455.89,408.807,448.144,402.725,451.042,407.582,446.184,410.481,455.89,408.807" fill="#181818" style="stroke:#181818;stroke-width:1;stroke-linejoin:miter;stroke-miterlimit:10;"/></g><!--link monitor to UC12--><g class="link" data-entity-1="ent0002" data-entity-2="ent0016" id="lnk29" data-source-line="39" data-link-type="dependency"><path d="M248.39,310.477 C280.39,319.527 334.11,339.547 362.66,377.297 C385.12,406.987 354.41,431.957 379.66,459.297 C392.71,473.427 405.688,481.113 424.068,487.123" style="stroke:#181818;stroke-width:1;" fill="none" id="monitor-to-UC12"/><polygon points="428.82,488.677,421.509,482.078,424.068,487.123,419.023,489.682,428.82,488.677" fill="#181818" style="stroke:#181818;stroke-width:1;stroke-linejoin:miter;stroke-miterlimit:10;"/></g><?plantuml-src VLBBhjCm4DtxAqPTy12tXVQ-qLKNpG8XWOI0omPO67kQZ70ynPuqF8J4H_25V0bEuq0Q2HPHPiPdpl6SiSEjW304AYi1Im6D47ib90vXGnBX3cmu_LuuBLiEDVpwyHDk8qAX8qQbj14EC2igSdO6Ee89fBtHmy5pzfI2mr7TnqfrCjgNIMBKMFID6_uCtnH04z4a2PWzunB8GqjIWM6By03qNelkEM-BvHYy2Tocl-4cfEjbnEaOyOH1gi1DMO7sa6v9Uv8lToCutACRMix6BQ-Q3pKbdwf4x3YIB-5JGrypz7mCVKFO0hSUTe7BW77Wkr3VZyOUsvBZ_mwEjIQN9j_f65iEDjEknlWYe1PyY3RTjJSWeox_XHgcV-VlrQcO5k3YIJRYv33Z_KnnDQPuMkyuT1fUq0ji0zUmg2rioGsIrqUcQ4SsyOC6qwqxcJqe3pjyDCQ_n8Xoa0SjWlLE1XkNHyj-7RJvs5C6z8brOlforRcU7oJCtrPaBVhtyxyFyS_PV7ruISVvwIG_c-Jda_n2gSoS2wj9VZd9hrJwOB7eucju33Stv8rhBAxN4sGoQ59OJWkhtm00?></g></svg>