<svg xmlns="http://www.w3.org/2000/svg" xmlns:xlink="http://www.w3.org/1999/xlink" version="1.1" data-diagram-type="DESCRIPTION" style="width:811px;height:969px;background:#FFFFFF;" width="811px" height="969px" viewBox="0 0 811 969" zoomAndPan="magnify" preserveAspectRatio="none" contentStyleType="text/css"><?plantuml 1.2026.7beta11?><defs/><g font-family="sans-serif" lengthAdjust="spacing"><g class="title" data-source-line="2"><text x="257.456" y="22.995" fill="#000" font-size="14" textLength="289.379" font-weight="700">Bits &amp; Bots Platform — Casos de Uso</text></g><!--cluster Bits & Bots Platform--><g class="cluster" data-qualified-name="Bits . Bots Platform" id="ent0003" data-source-line="7"><rect x="106.22" y="44.297" width="691.07" height="911" fill="none" style="stroke:#181818;stroke-width:1;" rx="2.5" ry="2.5"/><text x="371.234" y="59.292" fill="#000" font-size="14" textLength="161.041" font-weight="700">Bits &amp; Bots Platform</text></g><!--entity UC1--><g class="entity" data-qualified-name="Bits . Bots Platform.UC1" id="ent0004" data-source-line="8"><ellipse cx="259.123" cy="103.297" rx="106.003" ry="23.601" fill="#F1F1F1" style="stroke:#181818;stroke-width:0.5;"/><text x="164.52" y="107.946" fill="#000" font-size="14" textLength="189.205">Login com código + avatar</text></g><!--entity UC2--><g class="entity" data-qualified-name="Bits . Bots Platform.UC2" id="ent0005" data-source-line="9"><ellipse cx="259.124" cy="498.3" rx="112.264" ry="24.853" fill="#F1F1F1" style="stroke:#181818;stroke-width:0.5;"/><text x="157.74" y="502.948" fill="#000" font-size="14" textLength="202.768">Login com email + password</text></g><!--entity UC3--><g class="entity" data-qualified-name="Bits . Bots Platform.UC3" id="ent0006" data-source-line="10"><ellipse cx="259.118" cy="176.301" rx="55.238" ry="14.524" fill="#F1F1F1" style="stroke:#181818;stroke-width:0.5;"/><text x="222.18" y="180.949" fill="#000" font-size="14" textLength="73.876">Ver cursos</text></g><!--entity UC4--><g class="entity" data-qualified-name="Bits . Bots Platform.UC4" id="ent0007" data-source-line="11"><ellipse cx="259.115" cy="254.296" rx="128.445" ry="28.089" fill="#F1F1F1" style="stroke:#181818;stroke-width:0.5;"/><text x="140.47" y="258.944" fill="#000" font-size="14" textLength="237.289">Percorrer níveis de uma atividade</text></g><!--entity UC5--><g class="entity" data-qualified-name="Bits . Bots Platform.UC5" id="ent0008" data-source-line="12"><ellipse cx="259.116" cy="339.294" rx="96.036" ry="21.607" fill="#F1F1F1" style="stroke:#181818;stroke-width:0.5;"/><text x="175.475" y="343.943" fill="#000" font-size="14" textLength="167.282">Submeter quiz de fecho</text></g><!--entity UC6--><g class="entity" data-qualified-name="Bits . Bots Platform.UC6" id="ent0009" data-source-line="13"><ellipse cx="259.124" cy="417.3" rx="95.364" ry="21.473" fill="#F1F1F1" style="stroke:#181818;stroke-width:0.5;"/><text x="176.231" y="421.948" fill="#000" font-size="14" textLength="165.785">Ver o próprio progresso</text></g><!--entity UC7--><g class="entity" data-qualified-name="Bits . Bots Platform.UC7" id="ent0010" data-source-line="14"><ellipse cx="259.119" cy="576.295" rx="76.489" ry="17.698" fill="#F1F1F1" style="stroke:#181818;stroke-width:0.5;"/><text x="197.958" y="580.943" fill="#000" font-size="14" textLength="122.322">Criar/editar curso</text></g><!--entity UC8--><g class="entity" data-qualified-name="Bits . Bots Platform.UC8" id="ent0011" data-source-line="15"><ellipse cx="259.125" cy="654.294" rx="116.185" ry="25.637" fill="#F1F1F1" style="stroke:#181818;stroke-width:0.5;"/><text x="184.507" y="650.07" fill="#000" font-size="14" textLength="149.235">Criar/editar atividade</text><text x="176.977" y="666.366" fill="#000" font-size="14" textLength="164.295">(materiais, níveis, quiz)</text></g><!--entity UC9--><g class="entity" data-qualified-name="Bits . Bots Platform.UC9" id="ent0012" data-source-line="16"><ellipse cx="651.161" cy="654.293" rx="130.131" ry="28.426" fill="#F1F1F1" style="stroke:#181818;stroke-width:0.5;"/><text x="530.735" y="658.941" fill="#000" font-size="14" textLength="240.851">Importar conteúdo de ficheiro .md</text></g><!--entity UC10--><g class="entity" data-qualified-name="Bits . Bots Platform.UC10" id="ent0013" data-source-line="17"><ellipse cx="259.118" cy="739.296" rx="109.198" ry="24.24" fill="#F1F1F1" style="stroke:#181818;stroke-width:0.5;"/><text x="161.046" y="743.945" fill="#000" font-size="14" textLength="196.144">Validar atividade da criança</text></g><!--entity UC11--><g class="entity" data-qualified-name="Bits . Bots Platform.UC11" id="ent0014" data-source-line="18"><ellipse cx="259.117" cy="821.296" rx="103.847" ry="23.169" fill="#F1F1F1" style="stroke:#181818;stroke-width:0.5;"/><text x="166.866" y="825.945" fill="#000" font-size="14" textLength="184.502">Resetar tentativas de quiz</text></g><!--entity UC12--><g class="entity" data-qualified-name="Bits . Bots Platform.UC12" id="ent0015" data-source-line="19"><ellipse cx="259.117" cy="909.298" rx="136.907" ry="29.781" fill="#F1F1F1" style="stroke:#181818;stroke-width:0.5;"/><text x="131.559" y="913.947" fill="#000" font-size="14" textLength="255.117">Acompanhar progresso das crianças</text></g><!--entity crianca--><g class="entity" data-qualified-name="crianca" id="ent0001" data-source-line="4"><ellipse cx="32.605" cy="224.647" rx="8" ry="8" fill="#F1F1F1" style="stroke:#181818;stroke-width:0.5;"/><path d="M32.605,232.647 L32.605,259.647 M19.605,240.647 L45.605,240.647 M32.605,259.647 L19.605,274.647 M32.605,259.647 L45.605,274.647" style="stroke:#181818;stroke-width:0.5;" fill="none"/><text x="6.03" y="289.142" fill="#000" font-size="14" textLength="53.149">Criança</text></g><!--entity monitor--><g class="entity" data-qualified-name="monitor" id="ent0002" data-source-line="5"><ellipse cx="32.609" cy="687.647" rx="8" ry="8" fill="#F1F1F1" style="stroke:#181818;stroke-width:0.5;"/><path d="M32.609,695.647 L32.609,722.647 M19.609,703.647 L45.609,703.647 M32.609,722.647 L19.609,737.647 M32.609,722.647 L45.609,737.647" style="stroke:#181818;stroke-width:0.5;" fill="none"/><text x="6" y="752.142" fill="#000" font-size="14" textLength="53.218">Monitor</text></g><!--link crianca to UC1--><g class="link" data-entity-1="ent0001" data-entity-2="ent0004" id="lnk16" data-source-line="22" data-link-type="dependency"><path d="M47.26,215.857 C57.67,191.887 74.33,162.277 98.22,144.297 C117.45,129.817 136.442,121.69 159.772,115.6" style="stroke:#181818;stroke-width:1;" fill="none" id="crianca-to-UC1"/><polygon points="164.61,114.337,154.892,112.74,159.772,115.6,156.912,120.48,164.61,114.337" fill="#181818" style="stroke:#181818;stroke-width:1;stroke-linejoin:miter;stroke-miterlimit:10;"/></g><!--link crianca to UC3--><g class="link" data-entity-1="ent0001" data-entity-2="ent0006" id="lnk17" data-source-line="23" data-link-type="dependency"><path d="M59.43,232.107 C70.68,223.477 84.44,214.257 98.22,208.297 C132.65,193.407 169.324,186.02 201.474,181.72" style="stroke:#181818;stroke-width:1;" fill="none" id="crianca-to-UC3"/><polygon points="206.43,181.057,196.979,178.285,201.474,181.72,198.04,186.215,206.43,181.057" fill="#181818" style="stroke:#181818;stroke-width:1;stroke-linejoin:miter;stroke-miterlimit:10;"/></g><!--link crianca to UC4--><g class="link" data-entity-1="ent0001" data-entity-2="ent0007" id="lnk18" data-source-line="24" data-link-type="dependency"><path d="M59.36,254.297 C77.5,254.297 98.29,254.297 125.31,254.297" style="stroke:#181818;stroke-width:1;" fill="none" id="crianca-to-UC4"/><polygon points="130.31,254.297,121.31,250.297,125.31,254.297,121.31,258.297,130.31,254.297" fill="#181818" style="stroke:#181818;stroke-width:1;stroke-linejoin:miter;stroke-miterlimit:10;"/></g><!--link crianca to UC5--><g class="link" data-entity-1="ent0001" data-entity-2="ent0008" id="lnk19" data-source-line="25" data-link-type="dependency"><path d="M59.55,276.207 C70.83,284.787 84.57,294.057 98.22,300.297 C123.94,312.067 148.81,319.476 175.61,325.466" style="stroke:#181818;stroke-width:1;" fill="none" id="crianca-to-UC5"/><polygon points="180.49,326.557,172.579,320.69,175.61,325.466,170.834,328.497,180.49,326.557" fill="#181818" style="stroke:#181818;stroke-width:1;stroke-linejoin:miter;stroke-miterlimit:10;"/></g><!--link crianca to UC6--><g class="link" data-entity-1="ent0001" data-entity-2="ent0009" id="lnk20" data-source-line="26" data-link-type="dependency"><path d="M44.29,292.927 C53.94,320.697 70.9,356.877 98.22,378.297 C118.57,394.247 139.644,402.691 164.684,408.371" style="stroke:#181818;stroke-width:1;" fill="none" id="crianca-to-UC6"/><polygon points="169.56,409.477,161.668,403.585,164.684,408.371,159.898,411.387,169.56,409.477" fill="#181818" style="stroke:#181818;stroke-width:1;stroke-linejoin:miter;stroke-miterlimit:10;"/></g><!--link monitor to UC2--><g class="link" data-entity-1="ent0002" data-entity-2="ent0005" id="lnk21" data-source-line="28" data-link-type="dependency"><path d="M37.49,678.667 C43.58,638.667 59.07,577.107 98.22,541.297 C114.98,525.967 131.823,517.418 153.743,510.968" style="stroke:#181818;stroke-width:1;" fill="none" id="monitor-to-UC2"/><polygon points="158.54,509.557,148.777,508.26,153.743,510.968,151.035,515.935,158.54,509.557" fill="#181818" style="stroke:#181818;stroke-width:1;stroke-linejoin:miter;stroke-miterlimit:10;"/></g><!--link monitor to UC7--><g class="link" data-entity-1="ent0002" data-entity-2="ent0010" id="lnk22" data-source-line="29" data-link-type="dependency"><path d="M47.98,678.667 C58.48,655.687 74.97,627.877 98.22,611.297 C123.09,593.557 150.329,585.313 179.299,580.823" style="stroke:#181818;stroke-width:1;" fill="none" id="monitor-to-UC7"/><polygon points="184.24,580.057,174.734,577.483,179.299,580.823,175.959,585.388,184.24,580.057" fill="#181818" style="stroke:#181818;stroke-width:1;stroke-linejoin:miter;stroke-miterlimit:10;"/></g><!--link monitor to UC8--><g class="link" data-entity-1="ent0002" data-entity-2="ent0011" id="lnk23" data-source-line="30" data-link-type="dependency"><path d="M59.46,707.417 C68.78,704.007 79.41,700.307 89.22,697.297 C118.01,688.477 145.078,681.226 173.358,674.176" style="stroke:#181818;stroke-width:1;" fill="none" id="monitor-to-UC8"/><polygon points="178.21,672.967,168.51,671.263,173.358,674.176,170.445,679.025,178.21,672.967" fill="#181818" style="stroke:#181818;stroke-width:1;stroke-linejoin:miter;stroke-miterlimit:10;"/></g><!--link UC8 to UC9--><g class="link" data-entity-1="ent0011" data-entity-2="ent0012" id="lnk24" data-source-line="31" data-link-type="dependency"><path d="M375.57,654.297 C421.17,654.297 468.77,654.297 515.66,654.297" style="stroke:#181818;stroke-width:1;stroke-dasharray:7,7;" fill="none" id="UC8-to-UC9"/><polygon points="520.66,654.297,511.66,650.297,515.66,654.297,511.66,658.297,520.66,654.297" fill="#181818" style="stroke:#181818;stroke-width:1;stroke-linejoin:miter;stroke-miterlimit:10;"/><text x="427.03" y="650.364" fill="#000" font-size="13" textLength="63.007">«include»</text></g><!--link monitor to UC10--><g class="link" data-entity-1="ent0002" data-entity-2="ent0013" id="lnk25" data-source-line="32" data-link-type="dependency"><path d="M59.36,719.817 C83.78,722.217 117.084,725.48 153.554,729.05" style="stroke:#181818;stroke-width:1;" fill="none" id="monitor-to-UC10"/><polygon points="158.53,729.537,149.963,724.679,153.554,729.05,149.183,732.641,158.53,729.537" fill="#181818" style="stroke:#181818;stroke-width:1;stroke-linejoin:miter;stroke-miterlimit:10;"/></g><!--link monitor to UC11--><g class="link" data-entity-1="ent0002" data-entity-2="ent0014" id="lnk26" data-source-line="33" data-link-type="dependency"><path d="M59.45,749.337 C70.31,760.937 83.77,773.167 98.22,781.297 C120.53,793.867 141.929,801.365 166.649,807.325" style="stroke:#181818;stroke-width:1;" fill="none" id="monitor-to-UC11"/><polygon points="171.51,808.497,163.698,802.499,166.649,807.325,161.823,810.276,171.51,808.497" fill="#181818" style="stroke:#181818;stroke-width:1;stroke-linejoin:miter;stroke-miterlimit:10;"/></g><!--link monitor to UC12--><g class="link" data-entity-1="ent0002" data-entity-2="ent0015" id="lnk27" data-source-line="34" data-link-type="dependency"><path d="M41.24,755.667 C49.71,788.467 66.59,834.627 98.22,862.297 C112.81,875.067 126.026,882.645 144.506,889.425" style="stroke:#181818;stroke-width:1;" fill="none" id="monitor-to-UC12"/><polygon points="149.2,891.147,142.128,884.292,144.506,889.425,139.373,891.802,149.2,891.147" fill="#181818" style="stroke:#181818;stroke-width:1;stroke-linejoin:miter;stroke-miterlimit:10;"/></g><?plantuml-src TLBDRjD04BxlKunoG4MqWQJ_g8f4Sq82gGAr9ox3xiGPoTvnTzT10Y7n4Bm3fvvwu-etuKcwTjQHioe7opCxtpVV_9Mq2X0471Vh08OTwS1YLU1G4bnpyF02hYN-RaeCAt4L_Flr6vRenOCXkFMY5EeW3YPBnsZRFpW1zA0xH-CG-oYMez67ggsjL2U6jeX2a-UK9l130JIUDFe8-I05Mz1IWMuV3HS2hm0t672RzNOvUnvD5N8PiJLw_qsSIUZv67r73dJZObCfUZoEtf3Jubp4sFPXGznttbG867Z31WqbricOzRdvMb68fFk6ltUC5Ucr9EHfhYvGk_QnTjmPKZZoVi2UZR7TaDrhCXpxtfQSKEV_HUsg_68FAemLCR8_77evxEjxcR9SZBEyhsfnlOxOGErV8tqRhDV4Jc1Q3REytEi6owWsaWM3stCORYEkwisOyOayTJA1REXOs0-uAsk0xwtsNTngZNOT6RjHHGs_4ncME9khdqgbIuIZeqL_9Fl-SUQVPFvfvfyfbUutFSmp_pppBrJyO3hjx4ju2rTNR7NP65eiCcGSIlOmon_cJm00?></g></svg>