<svg xmlns="http://www.w3.org/2000/svg" xmlns:xlink="http://www.w3.org/1999/xlink" version="1.1" data-diagram-type="DESCRIPTION" style="width:1133px;height:780px;background:#FFFFFF;" width="1133px" height="780px" viewBox="0 0 1133 780" zoomAndPan="magnify" preserveAspectRatio="none" contentStyleType="text/css"><?plantuml 1.2026.7beta11?><defs/><g font-family="sans-serif" lengthAdjust="spacing"><g class="title" data-source-line="2"><text x="418.366" y="22.995" fill="#000" font-size="14" textLength="289.379" font-weight="700">Bits &amp; Bots Platform — Casos de Uso</text></g><!--cluster CriancaBox--><g class="cluster" data-qualified-name="CriancaBox" id="ent0003" data-source-line="7"><rect x="106.15" y="356.297" width="288.89" height="410" fill="none" style="stroke:#181818;stroke-width:1;" rx="2.5" ry="2.5"/><text x="221.026" y="371.292" fill="#000" font-size="14" textLength="59.138" font-weight="700">Criança</text></g><!--cluster MonitorBox--><g class="cluster" data-qualified-name="MonitorBox" id="ent0009" data-source-line="15"><rect x="428.04" y="44.297" width="691.07" height="517" fill="none" style="stroke:#181818;stroke-width:1;" rx="2.5" ry="2.5"/><text x="742.81" y="59.292" fill="#000" font-size="14" textLength="61.53" font-weight="700">Monitor</text></g><!--entity UC1--><g class="entity" data-qualified-name="CriancaBox.UC1" id="ent0004" data-source-line="8"><ellipse cx="250.593" cy="415.297" rx="106.003" ry="23.601" fill="#F1F1F1" style="stroke:#181818;stroke-width:0.5;"/><text x="155.99" y="419.946" fill="#000" font-size="14" textLength="189.205">Login com código + avatar</text></g><!--entity UC3--><g class="entity" data-qualified-name="CriancaBox.UC3" id="ent0005" data-source-line="9"><ellipse cx="250.588" cy="488.301" rx="55.238" ry="14.524" fill="#F1F1F1" style="stroke:#181818;stroke-width:0.5;"/><text x="213.65" y="492.949" fill="#000" font-size="14" textLength="73.876">Ver cursos</text></g><!--entity UC4--><g class="entity" data-qualified-name="CriancaBox.UC4" id="ent0006" data-source-line="10"><ellipse cx="250.585" cy="566.296" rx="128.445" ry="28.089" fill="#F1F1F1" style="stroke:#181818;stroke-width:0.5;"/><text x="131.94" y="570.944" fill="#000" font-size="14" textLength="237.289">Percorrer níveis de uma atividade</text></g><!--entity UC5--><g class="entity" data-qualified-name="CriancaBox.UC5" id="ent0007" data-source-line="11"><ellipse cx="250.586" cy="651.294" rx="96.036" ry="21.607" fill="#F1F1F1" style="stroke:#181818;stroke-width:0.5;"/><text x="166.945" y="655.943" fill="#000" font-size="14" textLength="167.282">Submeter quiz de fecho</text></g><!--entity UC6--><g class="entity" data-qualified-name="CriancaBox.UC6" id="ent0008" data-source-line="12"><ellipse cx="250.594" cy="729.3" rx="95.364" ry="21.473" fill="#F1F1F1" style="stroke:#181818;stroke-width:0.5;"/><text x="167.701" y="733.948" fill="#000" font-size="14" textLength="165.785">Ver o próprio progresso</text></g><!--entity UC2--><g class="entity" data-qualified-name="MonitorBox.UC2" id="ent0010" data-source-line="16"><ellipse cx="580.954" cy="104.3" rx="112.264" ry="24.853" fill="#F1F1F1" style="stroke:#181818;stroke-width:0.5;"/><text x="479.57" y="108.948" fill="#000" font-size="14" textLength="202.768">Login com email + password</text></g><!--entity UC7--><g class="entity" data-qualified-name="MonitorBox.UC7" id="ent0011" data-source-line="17"><ellipse cx="580.949" cy="182.295" rx="76.489" ry="17.698" fill="#F1F1F1" style="stroke:#181818;stroke-width:0.5;"/><text x="519.788" y="186.943" fill="#000" font-size="14" textLength="122.322">Criar/editar curso</text></g><!--entity UC8--><g class="entity" data-qualified-name="MonitorBox.UC8" id="ent0012" data-source-line="18"><ellipse cx="580.955" cy="260.294" rx="116.185" ry="25.637" fill="#F1F1F1" style="stroke:#181818;stroke-width:0.5;"/><text x="506.337" y="256.07" fill="#000" font-size="14" textLength="149.235">Criar/editar atividade</text><text x="498.807" y="272.366" fill="#000" font-size="14" textLength="164.295">(materiais, níveis, quiz)</text></g><!--entity UC9--><g class="entity" data-qualified-name="MonitorBox.UC9" id="ent0013" data-source-line="19"><ellipse cx="972.981" cy="260.293" rx="130.131" ry="28.426" fill="#F1F1F1" style="stroke:#181818;stroke-width:0.5;"/><text x="852.555" y="264.941" fill="#000" font-size="14" textLength="240.851">Importar conteúdo de ficheiro .md</text></g><!--entity UC10--><g class="entity" data-qualified-name="MonitorBox.UC10" id="ent0014" data-source-line="20"><ellipse cx="580.948" cy="345.296" rx="109.198" ry="24.24" fill="#F1F1F1" style="stroke:#181818;stroke-width:0.5;"/><text x="482.876" y="349.945" fill="#000" font-size="14" textLength="196.144">Validar atividade da criança</text></g><!--entity UC11--><g class="entity" data-qualified-name="MonitorBox.UC11" id="ent0015" data-source-line="21"><ellipse cx="580.947" cy="427.296" rx="103.847" ry="23.169" fill="#F1F1F1" style="stroke:#181818;stroke-width:0.5;"/><text x="488.696" y="431.945" fill="#000" font-size="14" textLength="184.502">Resetar tentativas de quiz</text></g><!--entity UC12--><g class="entity" data-qualified-name="MonitorBox.UC12" id="ent0016" data-source-line="22"><ellipse cx="580.947" cy="515.298" rx="136.907" ry="29.781" fill="#F1F1F1" style="stroke:#181818;stroke-width:0.5;"/><text x="453.389" y="519.947" fill="#000" font-size="14" textLength="255.117">Acompanhar progresso das crianças</text></g><!--entity crianca--><g class="entity" data-qualified-name="crianca" id="ent0001" data-source-line="4"><ellipse cx="32.575" cy="507.647" rx="8" ry="8" fill="#F1F1F1" style="stroke:#181818;stroke-width:0.5;"/><path d="M32.575,515.647 L32.575,542.647 M19.575,523.647 L45.575,523.647 M32.575,542.647 L19.575,557.647 M32.575,542.647 L45.575,557.647" style="stroke:#181818;stroke-width:0.5;" fill="none"/><text x="6" y="572.142" fill="#000" font-size="14" textLength="53.149">Criança</text></g><!--entity monitor--><g class="entity" data-qualified-name="monitor" id="ent0002" data-source-line="5"><ellipse cx="250.599" cy="272.647" rx="8" ry="8" fill="#F1F1F1" style="stroke:#181818;stroke-width:0.5;"/><path d="M250.599,280.647 L250.599,307.647 M237.599,288.647 L263.599,288.647 M250.599,307.647 L237.599,322.647 M250.599,307.647 L263.599,322.647" style="stroke:#181818;stroke-width:0.5;" fill="none"/><text x="223.99" y="337.142" fill="#000" font-size="14" textLength="53.218">Monitor</text></g><!--link crianca to monitor--><!--link crianca to UC1--><g class="link" data-entity-1="ent0001" data-entity-2="ent0004" id="lnk18" data-source-line="27" data-link-type="dependency"><path d="M56.49,498.907 C67.37,483.637 81.61,467.157 98.15,456.297 C117.39,443.667 135.606,436.212 157.836,430.152" style="stroke:#181818;stroke-width:1;" fill="none" id="crianca-to-UC1"/><polygon points="162.66,428.837,152.925,427.345,157.836,430.152,155.029,435.063,162.66,428.837" fill="#181818" style="stroke:#181818;stroke-width:1;stroke-linejoin:miter;stroke-miterlimit:10;"/></g><!--link crianca to UC3--><g class="link" data-entity-1="ent0001" data-entity-2="ent0005" id="lnk19" data-source-line="28" data-link-type="dependency"><path d="M59.44,528.797 C68.75,525.897 79.37,522.767 89.15,520.297 C127.3,510.687 166.211,503.001 198.411,497.151" style="stroke:#181818;stroke-width:1;" fill="none" id="crianca-to-UC3"/><polygon points="203.33,496.257,193.76,493.93,198.411,497.151,195.19,501.801,203.33,496.257" fill="#181818" style="stroke:#181818;stroke-width:1;stroke-linejoin:miter;stroke-miterlimit:10;"/></g><!--link crianca to UC4--><g class="link" data-entity-1="ent0001" data-entity-2="ent0006" id="lnk20" data-source-line="29" data-link-type="dependency"><path d="M59.63,540.797 C80.06,543.537 105.005,546.881 135.075,550.921" style="stroke:#181818;stroke-width:1;" fill="none" id="crianca-to-UC4"/><polygon points="140.03,551.587,131.643,546.424,135.075,550.921,130.578,554.353,140.03,551.587" fill="#181818" style="stroke:#181818;stroke-width:1;stroke-linejoin:miter;stroke-miterlimit:10;"/></g><!--link crianca to UC5--><g class="link" data-entity-1="ent0001" data-entity-2="ent0007" id="lnk21" data-source-line="30" data-link-type="dependency"><path d="M59.09,575.637 C69.73,588.987 83.12,602.957 98.15,612.297 C119.13,625.337 139.482,632.854 163.252,638.644" style="stroke:#181818;stroke-width:1;" fill="none" id="crianca-to-UC5"/><polygon points="168.11,639.827,160.312,633.811,163.252,638.644,158.419,641.583,168.11,639.827" fill="#181818" style="stroke:#181818;stroke-width:1;stroke-linejoin:miter;stroke-miterlimit:10;"/></g><!--link crianca to UC6--><g class="link" data-entity-1="ent0001" data-entity-2="ent0008" id="lnk22" data-source-line="31" data-link-type="dependency"><path d="M39.85,575.647 C47.56,610.527 64.09,660.917 98.15,690.297 C116.04,705.727 134.411,713.947 157.271,719.697" style="stroke:#181818;stroke-width:1;" fill="none" id="crianca-to-UC6"/><polygon points="162.12,720.917,154.368,714.842,157.271,719.697,152.416,722.601,162.12,720.917" fill="#181818" style="stroke:#181818;stroke-width:1;stroke-linejoin:miter;stroke-miterlimit:10;"/></g><!--link monitor to UC2--><g class="link" data-entity-1="ent0002" data-entity-2="ent0010" id="lnk23" data-source-line="33" data-link-type="dependency"><path d="M277.44,270.727 C307.93,235.517 361.9,179.307 420.04,147.297 C442.2,135.097 463.185,127.47 487.535,121.06" style="stroke:#181818;stroke-width:1;" fill="none" id="monitor-to-UC2"/><polygon points="492.37,119.787,482.648,118.21,487.535,121.06,484.685,125.946,492.37,119.787" fill="#181818" style="stroke:#181818;stroke-width:1;stroke-linejoin:miter;stroke-miterlimit:10;"/></g><!--link monitor to UC7--><g class="link" data-entity-1="ent0002" data-entity-2="ent0011" id="lnk24" data-source-line="34" data-link-type="dependency"><path d="M277.52,286.607 C309.83,267.677 367.26,236.047 420.04,217.297 C451.24,206.217 482.248,198.902 512.128,193.212" style="stroke:#181818;stroke-width:1;" fill="none" id="monitor-to-UC7"/><polygon points="517.04,192.277,507.451,190.031,512.128,193.212,508.947,197.89,517.04,192.277" fill="#181818" style="stroke:#181818;stroke-width:1;stroke-linejoin:miter;stroke-miterlimit:10;"/></g><!--link monitor to UC8--><g class="link" data-entity-1="ent0002" data-entity-2="ent0012" id="lnk25" data-source-line="35" data-link-type="dependency"><path d="M277.63,298.967 C320.79,293.447 404.37,282.751 474.53,273.781" style="stroke:#181818;stroke-width:1;" fill="none" id="monitor-to-UC8"/><polygon points="479.49,273.147,470.055,270.321,474.53,273.781,471.07,278.256,479.49,273.147" fill="#181818" style="stroke:#181818;stroke-width:1;stroke-linejoin:miter;stroke-miterlimit:10;"/></g><!--link UC8 to UC9--><g class="link" data-entity-1="ent0012" data-entity-2="ent0013" id="lnk26" data-source-line="36" data-link-type="dependency"><path d="M697.39,260.297 C742.99,260.297 790.6,260.297 837.49,260.297" style="stroke:#181818;stroke-width:1;stroke-dasharray:7,7;" fill="none" id="UC8-to-UC9"/><polygon points="842.49,260.297,833.49,256.297,837.49,260.297,833.49,264.297,842.49,260.297" fill="#181818" style="stroke:#181818;stroke-width:1;stroke-linejoin:miter;stroke-miterlimit:10;"/><text x="748.85" y="256.364" fill="#000" font-size="13" textLength="63.007">«include»</text></g><!--link monitor to UC10--><g class="link" data-entity-1="ent0002" data-entity-2="ent0014" id="lnk27" data-source-line="37" data-link-type="dependency"><path d="M277.63,305.707 C322.15,311.537 410.012,323.048 481.132,332.358" style="stroke:#181818;stroke-width:1;" fill="none" id="monitor-to-UC10"/><polygon points="486.09,333.007,477.685,327.873,481.132,332.358,476.647,335.805,486.09,333.007" fill="#181818" style="stroke:#181818;stroke-width:1;stroke-linejoin:miter;stroke-miterlimit:10;"/></g><!--link monitor to UC11--><g class="link" data-entity-1="ent0002" data-entity-2="ent0015" id="lnk28" data-source-line="38" data-link-type="dependency"><path d="M277.45,313.187 C308.14,326.477 360.53,350.277 403.04,375.297 C411.01,379.987 411.63,383.447 420.04,387.297 C444.49,398.507 467.685,405.721 493.395,411.831" style="stroke:#181818;stroke-width:1;" fill="none" id="monitor-to-UC11"/><polygon points="498.26,412.987,490.429,407.014,493.395,411.831,488.579,414.798,498.26,412.987" fill="#181818" style="stroke:#181818;stroke-width:1;stroke-linejoin:miter;stroke-miterlimit:10;"/></g><!--link monitor to UC12--><g class="link" data-entity-1="ent0002" data-entity-2="ent0016" id="lnk29" data-source-line="39" data-link-type="dependency"><path d="M277.6,307.257 C312,315.257 371.9,334.437 403.04,375.297 C428.51,408.717 391.93,437.067 420.04,468.297 C432.43,482.057 443.984,490.005 461.294,496.995" style="stroke:#181818;stroke-width:1;" fill="none" id="monitor-to-UC12"/><polygon points="465.93,498.867,459.082,491.788,461.294,496.995,456.087,499.206,465.93,498.867" fill="#181818" style="stroke:#181818;stroke-width:1;stroke-linejoin:miter;stroke-miterlimit:10;"/></g><?plantuml-src VLBDZjCm4BxdAKPxG22sXNR_qQeIxGa9f1LekG27mPuc8oMUOZi5WP1u2Dw14wUzSSsRy2JOYLEII728CkFvllaydwUahGSlO3alF6Ysf3oBoJpxac3Dti4zM4lutPJejs8h-FtjEspGYGDDSEiaor1viN2qiOoc-O57W0vKJ1JsjHTYE0HjgUhYB8jYQF8WDEPkEkvQFi6N3A1sfD05q7F9sO2I2bHpfpaNU0YuHuzTtzlDOeX-JHPKRSD5K_LaMBqXgyJQW37DpprnEqrT8Q3dFMlKb5YdGzQh-dr5Ff0-rFmvChQa2ad8iwcwmCusTplBCP3SadCzzZpxEff_w4-A_pC-LSXb67w7pdqKgrFJvH0TJRIFI7Emf_CXeIx-YJgC_jRShp2CoSZkk3Vek1twGUfoEUpohDg9RNN4U6f-QMczOLKGMu5vrT_mQcGHba5j80iQkxtf5o6ywECXuoKvYZAUZ8yiR5yjNgk7ZpRWQV1gXwO8Z8F_GSCTHFhDM2pZSwILXTcRWhKcysxsTrKFjTcgtRDnVZB9JoVvsIG_pxBKEHqi9_d59B_CmWVpUOolu0bSNxDHPQrfjPeWWs6JWyNqOFa7?></g></svg>